<svg t="1589301981574" class="icon" viewBox="0 0 1194 1024" version="1.1" xmlns="http://www.w3.org/2000/svg" p-id="1259" width="200" height="200"><path d="M1052.444444 0H142.222222C67.299556 0.967111 0 65.706667 0 142.222222v739.555556c0 76.515556 67.299556 142.222222 142.222222 142.222222h910.222222c74.894222-0.967111 142.222222-65.706667 142.222223-142.222222V142.222222c0.967111-76.515556-66.332444-142.222222-142.222223-142.222222z m-200.362666 571.249778L625.777778 1024h-199.111111l227.555555-227.555556-28.444444-56.888888-28.444445-28.444445-170.666666-199.111111c-14.620444-34.133333-49.464889-38.883556-85.333334-28.444444L85.333333 796.444444V170.666667c-2.787556-50.261333 27.079111-82.488889 56.888889-85.333334h910.222222c50.488889 2.844444 83.342222 33.194667 85.333334 85.333334v625.777777l-170.666667-227.555555c-26.453333-22.755556-63.288889-32.227556-85.333333-28.444445-3.697778 4.323556-13.596444 14.592-29.696 30.805334zM796.444444 455.111111a113.777778 113.777778 0 1 0 0-227.555555 113.777778 113.777778 0 0 0 0 227.555555z" fill="#999999" p-id="1260"></path></svg>